<mxfile host="app.diagrams.net" modified="2024-09-11T18:31:01.448Z" agent="Mozilla/5.0 (Windows NT 10.0; Win64; x64) AppleWebKit/537.36 (KHTML, like Gecko) Chrome/128.0.0.0 Safari/537.36" version="24.4.4" etag="iJs4BZYRS57IQtpgJGNU" type="github">
  <diagram name="Page-1" id="ApTMFojcThwKM-znWD4u">
    <mxGraphModel>
      <root>
        <mxCell id="0" />
        <mxCell id="1" parent="0" />
      </root>
    </mxGraphModel>
  </diagram>
</mxfile>
